<?xml version="1.0" encoding="utf-8"?>
<!-- Generator: Adobe Illustrator 26.0.0, SVG Export Plug-In . SVG Version: 6.00 Build 0)  -->
<svg version="1.1" id="Layer_1" xmlns="http://www.w3.org/2000/svg" xmlns:xlink="http://www.w3.org/1999/xlink" x="0px" y="0px"
	 viewBox="0 0 657.58 92.66" style="enable-background:new 0 0 657.58 92.66;" xml:space="preserve">
<style type="text/css">
	
		.st0{clip-path:url(#SVGID_00000043437277733357136090000017126339025036732035_);fill:url(#SVGID_00000109739359574576147440000007793228728713009079_);}
	.st1{opacity:0.4;clip-path:url(#SVGID_00000043437277733357136090000017126339025036732035_);}
	.st2{opacity:0.4;}
	.st3{clip-path:url(#XMLID_00000113341423707562598950000008627685813308755614_);}
	.st4{opacity:0.45;fill:#FFFFFF;}
	.st5{opacity:0.65;fill:#FFFFFF;}
	.st6{opacity:0.39;fill:#FFFFFF;}
	.st7{fill:#FFFFFF;}
	.st8{opacity:0.49;fill:#FFFFFF;}
	.st9{opacity:0.29;fill:#FFFFFF;}
	.st10{opacity:0.16;fill:#FFFFFF;}
	.st11{opacity:0.13;fill:#FFFFFF;}
	.st12{opacity:0.18;fill:#FFFFFF;}
	.st13{opacity:0.46;clip-path:url(#XMLID_00000113341423707562598950000008627685813308755614_);}
	.st14{opacity:0.18;clip-path:url(#XMLID_00000113341423707562598950000008627685813308755614_);fill:#FFFFFF;}
	.st15{opacity:0.4;clip-path:url(#XMLID_00000113341423707562598950000008627685813308755614_);}
	.st16{opacity:0.35;fill:#1E102F;}
	.st17{fill:#643B8E;}
	.st18{fill:#2E124C;}
	.st19{fill:#845FA7;}
	.st20{fill:#2D124C;}
	.st21{fill:#6E297B;}
	.st22{fill:#DB903E;}
	.st23{fill:#BB762A;}
	.st24{fill:#2D807A;}
	.st25{fill:#4EC2BB;}
	.st26{opacity:0.28;}
	.st27{fill:#DEF2FC;}
	.st28{opacity:0.3;}
	.st29{fill:none;stroke:#FFFFFF;stroke-width:2.9233;stroke-miterlimit:10;}
	.st30{opacity:0.16;}
	.st31{fill:#FFCB0C;}
	.st32{fill:#FDE6A7;}
	.st33{fill:#4E2A72;}
	.st34{fill:#AFDDD5;}
	.st35{fill:#F5A41F;}
	
		.st36{opacity:0.37;clip-path:url(#XMLID_00000164483461863545749890000000261159234461755800_);fill:url(#XMLID_00000096025731692217807880000005614430553867622545_);}
	.st37{fill:#3E2768;}
	.st38{fill:#4D2D7C;}
	.st39{opacity:0.45;}
	.st40{opacity:0.5;}
	.st41{opacity:0.75;}
	.st42{fill:url(#XMLID_00000169559959524521643100000011351495326757271984_);}
	.st43{fill:url(#XMLID_00000029734896403786031140000003435014403914356382_);}
	.st44{opacity:0.35;}
	.st45{fill:url(#XMLID_00000070820643621569105120000007441536096975963803_);}
	.st46{fill:#E9AA68;}
	.st47{fill:#59307E;}
	.st48{fill:#6C4499;}
	.st49{opacity:0.25;fill:#DFF3FD;}
	.st50{fill:#FFCA08;}
	.st51{opacity:0.2;}
	.st52{fill:url(#SVGID_00000156568631157365945800000005095494881420024713_);}
	.st53{fill:#270D43;}
	.st54{fill:url(#SVGID_00000128482233470139822520000016186702675932477058_);}
	.st55{fill:url(#SVGID_00000173861626082675633340000005133378843204657330_);}
	.st56{fill:url(#SVGID_00000005958030187400580540000016339625635052406938_);}
	.st57{fill:url(#SVGID_00000125570499573660251680000005372129187051521460_);}
	.st58{fill:url(#SVGID_00000090284779755908047520000004328908529091153301_);}
	.st59{opacity:0.55;}
	.st60{fill:#5D2E8D;}
	.st61{fill:#F8A51C;}
	
		.st62{clip-path:url(#SVGID_00000157303420845027235540000014181949267748290236_);fill:url(#SVGID_00000173883970054728779350000002044864683892672424_);}
	.st63{clip-path:url(#SVGID_00000157303420845027235540000014181949267748290236_);}
	
		.st64{opacity:0.2;clip-path:url(#XMLID_00000155132059474281172710000003310025402934496444_);fill:url(#XMLID_00000003097729242826529960000005815276127402781574_);}
	
		.st65{clip-path:url(#XMLID_00000155132059474281172710000003310025402934496444_);fill:url(#XMLID_00000010285336707698001690000013663273507991861949_);}
	
		.st66{clip-path:url(#XMLID_00000155132059474281172710000003310025402934496444_);fill:url(#XMLID_00000079452533026902236840000017415022157238506132_);}
	
		.st67{opacity:0.3;clip-path:url(#XMLID_00000155132059474281172710000003310025402934496444_);fill:url(#XMLID_00000150063328138585329800000008152775010180652188_);}
	
		.st68{opacity:0.2;clip-path:url(#XMLID_00000155132059474281172710000003310025402934496444_);fill:url(#XMLID_00000048470196736487410500000008645192408431490949_);}
	
		.st69{opacity:0.5;clip-path:url(#XMLID_00000155132059474281172710000003310025402934496444_);fill:url(#XMLID_00000147187085053660064420000009249664300801354626_);}
	
		.st70{opacity:0.3;clip-path:url(#XMLID_00000155132059474281172710000003310025402934496444_);fill:url(#XMLID_00000178179245470632628900000013781625523066992027_);}
	
		.st71{clip-path:url(#XMLID_00000155132059474281172710000003310025402934496444_);fill:url(#XMLID_00000149380604988427221970000008538958793856001680_);}
	
		.st72{opacity:0.2;clip-path:url(#XMLID_00000155132059474281172710000003310025402934496444_);fill:url(#XMLID_00000178908831330262102210000010269796773219426697_);}
	
		.st73{opacity:0.2;clip-path:url(#XMLID_00000155132059474281172710000003310025402934496444_);fill:url(#XMLID_00000050652487980849045410000013243676008251777968_);}
	
		.st74{opacity:0.2;clip-path:url(#XMLID_00000155132059474281172710000003310025402934496444_);fill:url(#XMLID_00000000188829522577661420000001615733417765065902_);}
	
		.st75{opacity:0.2;clip-path:url(#XMLID_00000155132059474281172710000003310025402934496444_);fill:url(#XMLID_00000119093920389949749060000014513591651673199774_);}
	.st76{opacity:0.4;clip-path:url(#SVGID_00000157303420845027235540000014181949267748290236_);}
	.st77{clip-path:url(#XMLID_00000065075884931507875020000012615391996893060234_);}
	.st78{opacity:0.46;clip-path:url(#XMLID_00000065075884931507875020000012615391996893060234_);}
	.st79{opacity:0.18;clip-path:url(#XMLID_00000065075884931507875020000012615391996893060234_);fill:#FFFFFF;}
	.st80{opacity:0.4;clip-path:url(#XMLID_00000065075884931507875020000012615391996893060234_);}
	.st81{fill:url(#XMLID_00000065058089249302276980000016847950486469212568_);}
	.st82{fill:url(#XMLID_00000145740860721923475380000001707373603575802254_);}
	.st83{fill:url(#XMLID_00000161589625369131367280000006073281105383409320_);}
	.st84{fill:#2C194C;}
	.st85{opacity:0.15;fill-rule:evenodd;clip-rule:evenodd;fill:#1E102F;}
	.st86{opacity:0.05;fill-rule:evenodd;clip-rule:evenodd;fill:#FFFFFF;}
	.st87{opacity:0.15;fill:#1E102F;}
	.st88{opacity:0.05;fill:#FFFFFF;}
	.st89{fill:url(#SVGID_00000044891359548890060090000016435173557478425765_);}
	.st90{fill:none;stroke:#FFFFFF;stroke-width:0.7031;stroke-miterlimit:10;}
	.st91{clip-path:url(#SVGID_00000044161939530021097000000008077529316993001114_);}
	.st92{clip-path:url(#SVGID_00000044161939530021097000000008077529316993001114_);fill:#F4F4F4;}
	.st93{clip-path:url(#SVGID_00000080907545674421693600000016256362618627113116_);}
	.st94{opacity:0.8;clip-path:url(#SVGID_00000080907545674421693600000016256362618627113116_);}
	.st95{clip-path:url(#SVGID_00000129167548490409947650000001641607550492138164_);}
	.st96{opacity:0.5;fill:url(#SVGID_00000134236254045031760250000007714528438791843260_);}
	.st97{fill:url(#XMLID_00000013905460796432922270000016320680394543588498_);fill-opacity:0.5;}
	.st98{fill:#F7F6F8;}
	.st99{fill:url(#SVGID_00000132807339729033617590000016122600845712046250_);}
	.st100{fill:url(#SVGID_00000031888671675725610050000011686807003485692065_);}
	.st101{fill:url(#SVGID_00000036241963444206029720000003849543241018127509_);}
	.st102{fill:url(#SVGID_00000008843962610756734440000012838209310772218277_);}
	.st103{fill:url(#SVGID_00000151530547971980508850000016771286866070396342_);}
	.st104{fill:url(#SVGID_00000167395324762620066150000013346420081016833157_);}
	.st105{fill:#B7355F;}
	.st106{fill:url(#SVGID_00000030461582138383737150000012802788540369677208_);}
	.st107{fill:url(#SVGID_00000000202050411573873630000013810735018814185099_);}
	.st108{fill:url(#SVGID_00000104681800661727390620000015883172566128572314_);}
	.st109{fill:none;stroke:#F7F6F8;stroke-width:2;stroke-miterlimit:10;}
	.st110{fill:#F6A41E;}
	.st111{fill:none;stroke:#FFFFFF;stroke-width:5.867;stroke-miterlimit:10;}
	.st112{fill:#E2DEED;}
	.st113{fill:url(#SVGID_00000160888364188415558000000018209291363220906419_);}
	.st114{fill:url(#SVGID_00000011749076957903006520000010933176925370439822_);}
	.st115{fill:url(#SVGID_00000031904945648559106440000006686669319219704972_);}
	.st116{fill:#E7E7E8;}
	.st117{fill:url(#SVGID_00000047762328122594425070000012549938454817740703_);}
	.st118{fill:#1C2C59;}
	.st119{fill:url(#SVGID_00000050625910647493875970000010398441848771473047_);}
	.st120{fill:#162650;}
	.st121{fill:url(#SVGID_00000063630572334615735620000007260627850938526618_);}
	.st122{fill:#340356;}
	.st123{fill:url(#XMLID_00000135684059522033884360000005085518525056084920_);}
	.st124{fill:url(#XMLID_00000152229723486477962840000000721933537704184451_);}
	.st125{fill:#F56D6D;}
	.st126{fill:url(#SVGID_00000131349201323686266570000011985707152551110057_);}
	.st127{fill:url(#SVGID_00000102530099816994360840000011071471784097073571_);}
	.st128{fill:url(#SVGID_00000089544498771818562680000009996829318319495327_);}
	.st129{fill:url(#SVGID_00000131360621857552661350000005314057050738110341_);}
	.st130{fill:#F0F0F1;}
	.st131{fill:none;stroke:#EEEEEE;stroke-width:0.594;stroke-miterlimit:10;}
	.st132{fill:url(#SVGID_00000047029814191372609860000009861890512731676074_);}
	.st133{fill:url(#SVGID_00000043441217448880686300000014497130698986964159_);}
	
		.st134{clip-path:url(#SVGID_00000029032590190882259830000015922931787429131449_);fill:url(#SVGID_00000018952250699669095100000002019203424781174921_);}
	
		.st135{clip-path:url(#SVGID_00000029032590190882259830000015922931787429131449_);fill:url(#SVGID_00000078007249823945732880000011499887675654726046_);}
	
		.st136{clip-path:url(#SVGID_00000029032590190882259830000015922931787429131449_);fill:url(#SVGID_00000144317118236484249010000010268034410574204829_);}
	.st137{fill:url(#SVGID_00000053522212712229633960000008682379169883032487_);}
	
		.st138{clip-path:url(#SVGID_00000056419090634169743790000009495502802854738354_);fill:url(#SVGID_00000160152414572717530670000007045584894121352070_);}
	
		.st139{clip-path:url(#SVGID_00000056419090634169743790000009495502802854738354_);fill:url(#SVGID_00000178907588743316305530000017845518134374305968_);}
	
		.st140{clip-path:url(#SVGID_00000056419090634169743790000009495502802854738354_);fill:url(#SVGID_00000125604585532255558400000001947813684899020462_);}
	.st141{fill:url(#SVGID_00000070838214046077744050000002496854244031036841_);}
	.st142{fill:url(#SVGID_00000058576771339862047040000014561757897860937399_);}
	.st143{fill:url(#SVGID_00000183932226621667001560000007068950176170448054_);}
	.st144{fill:#633D8E;}
	.st145{fill:#FBFBFC;}
	.st146{fill:#EBE8F0;}
	.st147{fill:#180E1E;}
	.st148{fill:url(#XMLID_00000126286138882826995140000014797965939627955627_);}
	.st149{fill:none;stroke:#CDCDCD;stroke-width:0.4558;stroke-miterlimit:10;}
	.st150{fill:url(#SVGID_00000044168124835713854280000017622618632440683695_);}
	.st151{fill:#5C2D8F;}
	.st152{fill:#F3F2F9;}
	.st153{fill:#56338B;}
	.st154{fill:url(#SVGID_00000113340015310041246550000002565104529556457638_);}
	.st155{fill:url(#SVGID_00000170978663736361887270000006134820110587431356_);}
	.st156{fill:none;stroke:#FFFFFF;stroke-width:0.4571;stroke-linecap:square;}
	.st157{opacity:0.3;fill:#FFFFFF;enable-background:new    ;}
	.st158{fill:url(#Oval-Copy_00000070108322440531178270000002572974743801252518_);}
	
		.st159{opacity:0.3;fill-rule:evenodd;clip-rule:evenodd;fill:url(#Oval-Copy-3_00000179646630070676147310000000445171596768858514_);enable-background:new    ;}
	.st160{fill-rule:evenodd;clip-rule:evenodd;}
	.st161{fill-rule:evenodd;clip-rule:evenodd;fill:url(#SVGID_00000119084457624617326310000000976857738715419547_);}
	.st162{opacity:0.3;fill:url(#Oval-Copy-6_00000057116448809832586480000009794961521888445834_);enable-background:new    ;}
	.st163{fill:#F5F4F9;}
	.st164{fill:none;stroke:#CFCFCF;stroke-width:0.25;stroke-miterlimit:10;}
	.st165{fill:none;stroke:#56338A;stroke-miterlimit:10;}
	.st166{fill:url(#SVGID_00000053540303039558318640000017529989922137691009_);}
	.st167{fill:#F9AA13;}
	.st168{fill:url(#SVGID_00000003085455918261636450000004996701607231000727_);}
	.st169{fill:url(#SVGID_00000158733273965482579120000006164503931281340807_);}
	.st170{fill:url(#SVGID_00000078023311023925815470000008787187523114588089_);}
	.st171{fill:url(#SVGID_00000069383525928093473180000003764534745616482197_);}
	.st172{fill:url(#SVGID_00000178885508448808457350000011444894739981062579_);}
	.st173{fill:url(#SVGID_00000001658555795933117250000009150640573808571278_);}
	.st174{fill:none;stroke:#E2DEED;stroke-miterlimit:10;}
	.st175{fill:url(#SVGID_00000053513019127356605350000016477080369470584227_);}
	.st176{fill:url(#SVGID_00000072982408997586163090000004514984545280654014_);}
	.st177{fill:url(#SVGID_00000018209751123691585220000001259918515742697914_);}
	.st178{fill:url(#SVGID_00000178900703092882894210000000561428984692893106_);}
	.st179{fill:url(#XMLID_00000135675315275263485790000008508356574249107854_);}
	.st180{fill:url(#SVGID_00000165926036527241809990000007889741057296341941_);}
	.st181{fill:url(#SVGID_00000074426976294324978350000012813840554752495287_);}
	
		.st182{clip-path:url(#SVGID_00000054946478271169085630000014225788068731637914_);fill:url(#SVGID_00000160179835216822144500000010032345612143198352_);}
	.st183{clip-path:url(#SVGID_00000054946478271169085630000014225788068731637914_);}
	
		.st184{opacity:0.2;clip-path:url(#XMLID_00000078042674774366134000000014685632979644647092_);fill:url(#XMLID_00000150072054983636534550000018346826665702764716_);}
	
		.st185{clip-path:url(#XMLID_00000078042674774366134000000014685632979644647092_);fill:url(#XMLID_00000132773671011854743260000011627121631773468806_);}
	
		.st186{clip-path:url(#XMLID_00000078042674774366134000000014685632979644647092_);fill:url(#XMLID_00000043430545330898988830000003574379320088488617_);}
	
		.st187{opacity:0.3;clip-path:url(#XMLID_00000078042674774366134000000014685632979644647092_);fill:url(#XMLID_00000045617358348584748450000009586981609673879737_);}
	
		.st188{opacity:0.2;clip-path:url(#XMLID_00000078042674774366134000000014685632979644647092_);fill:url(#XMLID_00000010287069428356478910000012433829563063253659_);}
	
		.st189{opacity:0.5;clip-path:url(#XMLID_00000078042674774366134000000014685632979644647092_);fill:url(#XMLID_00000157298032905222233870000009279702222815839668_);}
	
		.st190{opacity:0.3;clip-path:url(#XMLID_00000078042674774366134000000014685632979644647092_);fill:url(#XMLID_00000015338608613173373430000004603231840868941462_);}
	
		.st191{clip-path:url(#XMLID_00000078042674774366134000000014685632979644647092_);fill:url(#XMLID_00000142137470360467098740000008702189608639897791_);}
	
		.st192{opacity:0.2;clip-path:url(#XMLID_00000078042674774366134000000014685632979644647092_);fill:url(#XMLID_00000136409001045284055790000016857301934745317532_);}
	
		.st193{opacity:0.2;clip-path:url(#XMLID_00000078042674774366134000000014685632979644647092_);fill:url(#XMLID_00000090998521006584348270000005931786785785829535_);}
	
		.st194{opacity:0.2;clip-path:url(#XMLID_00000078042674774366134000000014685632979644647092_);fill:url(#XMLID_00000121279178666061403770000010934633414620541059_);}
	
		.st195{opacity:0.2;clip-path:url(#XMLID_00000078042674774366134000000014685632979644647092_);fill:url(#XMLID_00000019671912977583073920000008489722039317647015_);}
	.st196{opacity:0.4;clip-path:url(#SVGID_00000054946478271169085630000014225788068731637914_);}
	.st197{clip-path:url(#XMLID_00000062174215329814678240000015113252064007938994_);}
	.st198{opacity:0.46;clip-path:url(#XMLID_00000062174215329814678240000015113252064007938994_);}
	.st199{opacity:0.18;clip-path:url(#XMLID_00000062174215329814678240000015113252064007938994_);fill:#FFFFFF;}
	.st200{opacity:0.4;clip-path:url(#XMLID_00000062174215329814678240000015113252064007938994_);}
	.st201{fill:url(#XMLID_00000133523143246928400940000006040681766196879271_);}
	.st202{fill:url(#XMLID_00000115500900652561596430000010223211208604701615_);}
	.st203{fill:url(#XMLID_00000178892871275559930330000003036839564117077411_);}
	.st204{fill:url(#SVGID_00000176021008142475673330000001518105054795085998_);}
	.st205{fill:url(#SVGID_00000066515113955892958440000017280411453923150765_);}
	.st206{fill:url(#SVGID_00000172400733813205770850000009021713449319375775_);}
	.st207{fill:url(#SVGID_00000047769603284161061260000004550155359083627667_);}
	.st208{fill:url(#SVGID_00000143584405699205475100000012784673953795845043_);}
	.st209{fill:url(#SVGID_00000055676548505601424460000001996493657618692228_);}
	.st210{fill:#6AC2C5;}
	.st211{fill:#6AC3C9;}
	.st212{display:none;}
	.st213{display:inline;}
	.st214{display:inline;clip-path:url(#SVGID_00000114042818166965468810000016874060869894338452_);}
	.st215{fill:url(#SVGID_00000138569439361538237760000013284723804004679345_);}
	.st216{display:none;opacity:0.2;}
	.st217{opacity:0.75;clip-path:url(#SVGID_00000059294756124559734150000012979280284840360863_);}
	.st218{display:none;opacity:0.75;fill:url(#SVGID_00000176013115014863519220000007524727254175968184_);}
	.st219{display:none;fill:#F08723;}
	.st220{display:inline;clip-path:url(#SVGID_00000176728533384999103170000011109049387592219833_);}
	.st221{fill:url(#SVGID_00000137837162488208143900000006705735800840322999_);}
	.st222{fill:#270543;}
	.st223{fill:url(#SVGID_00000180362636953691072240000006628479949678709678_);}
	.st224{fill:url(#SVGID_00000060006609864310963290000006862294318757591973_);}
	.st225{fill:url(#SVGID_00000129177664399358774910000002959345522954228630_);}
	.st226{fill:url(#SVGID_00000035533006123254288180000014145542622673946272_);}
	.st227{fill:url(#SVGID_00000065067208846203502140000007419087791770704804_);}
	.st228{fill:#663C90;}
	.st229{fill:#2D184D;}
	.st230{fill:#8661A8;}
	.st231{fill:#6F2A7B;}
	.st232{fill:#DB903D;}
	.st233{fill:#BB782B;}
	.st234{fill:#2E817C;}
	.st235{fill:#DFF2FC;}
	.st236{fill:none;stroke:#FFFFFF;stroke-width:1.2478;stroke-miterlimit:10;}
	.st237{fill:#4F2A72;}
	.st238{fill:#010101;}
	.st239{fill:#B1DED6;}
	.st240{fill:#E9AA69;}
	.st241{fill:#5A307E;}
	.st242{fill:#6C459A;}
	.st243{fill:#FBB81B;}
	.st244{clip-path:url(#SVGID_00000074432629067782814350000001140957529104794015_);}
	.st245{opacity:0.9;}
	.st246{opacity:0.8;}
	.st247{opacity:0.85;fill-rule:evenodd;clip-rule:evenodd;fill:#F6FBFC;enable-background:new    ;}
	.st248{fill:#350D48;}
	.st249{fill:#412061;}
	.st250{fill:#8C5AA0;}
	.st251{fill:#4C2773;}
	.st252{fill:#DE9231;}
	.st253{fill:#C07416;}
	.st254{fill:#C39E00;}
	.st255{fill:#1D1D1B;}
	.st256{fill:#12100B;}
	.st257{fill:#653184;}
	.st258{fill:#741A72;}
	.st259{fill:#FFD200;}
	.st260{fill:#F3A400;}
	.st261{fill:#FBD227;}
	.st262{opacity:0.39;}
	.st263{fill:#CEDCF1;}
	.st264{fill:#F0F4FB;}
	.st265{fill:none;stroke:#C6DCF3;stroke-width:0;stroke-linecap:round;stroke-linejoin:round;}
	.st266{fill:#F4A31E;}
	.st267{opacity:0.6;}
	.st268{fill:#643A8E;}
	.st269{fill:#2E004D;}
	.st270{fill:#855FA7;}
	.st271{fill:#DB913E;}
	.st272{fill:#BC762A;}
	.st273{fill:#4EBEBB;}
	.st274{fill:#E8297D;}
	.st275{fill:#5E318C;}
	.st276{fill:#52276B;}
	.st277{fill:#B0DED6;}
	.st278{fill:#6F1D7C;}
	.st279{clip-path:url(#SVGID_00000080169480854180620960000009684854956359970715_);}
	.st280{clip-path:url(#SVGID_00000134219431108555385550000000588946918334876583_);}
	
		.st281{clip-path:url(#SVGID_00000003106862347177458220000016481095267996510093_);fill:url(#SVGID_00000097489747579450049710000011632939947915797938_);}
	.st282{opacity:0.4;clip-path:url(#SVGID_00000003106862347177458220000016481095267996510093_);}
	.st283{clip-path:url(#XMLID_00000078046180362889702300000009362864319435000209_);}
	.st284{opacity:0.46;clip-path:url(#XMLID_00000078046180362889702300000009362864319435000209_);}
	.st285{opacity:0.18;clip-path:url(#XMLID_00000078046180362889702300000009362864319435000209_);fill:#FFFFFF;}
	.st286{opacity:0.4;clip-path:url(#XMLID_00000078046180362889702300000009362864319435000209_);}
	.st287{fill:url(#XMLID_00000032613389548474259440000001810055519714834096_);}
	.st288{fill:url(#SVGID_00000009552785433787607050000008339799607147252096_);}
	
		.st289{clip-path:url(#SVGID_00000092419090593197350440000005671421683369320335_);fill:url(#SVGID_00000137104582248057753380000013764699676956054205_);}
	.st290{clip-path:url(#SVGID_00000092419090593197350440000005671421683369320335_);}
	
		.st291{opacity:0.2;clip-path:url(#XMLID_00000083081895751935311490000006563826691370238624_);fill:url(#XMLID_00000079447796486345094280000016563268895803810444_);}
	
		.st292{clip-path:url(#XMLID_00000083081895751935311490000006563826691370238624_);fill:url(#XMLID_00000039122236353932938390000006943992236870616976_);}
	
		.st293{clip-path:url(#XMLID_00000083081895751935311490000006563826691370238624_);fill:url(#XMLID_00000119077239549845721030000010071212661895759256_);}
	
		.st294{opacity:0.3;clip-path:url(#XMLID_00000083081895751935311490000006563826691370238624_);fill:url(#XMLID_00000018201804939680950360000010897549627293049236_);}
	
		.st295{opacity:0.2;clip-path:url(#XMLID_00000083081895751935311490000006563826691370238624_);fill:url(#XMLID_00000091721197219053407510000000445938747410361994_);}
	
		.st296{opacity:0.5;clip-path:url(#XMLID_00000083081895751935311490000006563826691370238624_);fill:url(#XMLID_00000020363776070449786290000010063006332229664936_);}
	
		.st297{opacity:0.3;clip-path:url(#XMLID_00000083081895751935311490000006563826691370238624_);fill:url(#XMLID_00000159436246488085499800000006699083094574459063_);}
	
		.st298{clip-path:url(#XMLID_00000083081895751935311490000006563826691370238624_);fill:url(#XMLID_00000108989834954043537800000011295823015422814900_);}
	
		.st299{opacity:0.2;clip-path:url(#XMLID_00000083081895751935311490000006563826691370238624_);fill:url(#XMLID_00000038396209017072891830000005158829789168792737_);}
	
		.st300{opacity:0.2;clip-path:url(#XMLID_00000083081895751935311490000006563826691370238624_);fill:url(#XMLID_00000116223852374082743670000008861508331350043021_);}
	
		.st301{opacity:0.2;clip-path:url(#XMLID_00000083081895751935311490000006563826691370238624_);fill:url(#XMLID_00000052809089883290997970000014280858603979692727_);}
	
		.st302{opacity:0.2;clip-path:url(#XMLID_00000083081895751935311490000006563826691370238624_);fill:url(#XMLID_00000112624199791463994090000011992432649968230567_);}
	.st303{opacity:0.4;clip-path:url(#SVGID_00000092419090593197350440000005671421683369320335_);}
	.st304{clip-path:url(#XMLID_00000118379646037245244080000016815943891073981313_);}
	.st305{opacity:0.46;clip-path:url(#XMLID_00000118379646037245244080000016815943891073981313_);}
	.st306{opacity:0.18;clip-path:url(#XMLID_00000118379646037245244080000016815943891073981313_);fill:#FFFFFF;}
	.st307{opacity:0.4;clip-path:url(#XMLID_00000118379646037245244080000016815943891073981313_);}
	.st308{fill:url(#XMLID_00000181077508255052368340000004715028608313802156_);}
	.st309{fill:url(#XMLID_00000082340396852098200900000012019125867730254752_);}
	.st310{fill:url(#XMLID_00000074424685435864648100000005260544835857187479_);}
	.st311{fill:url(#SVGID_00000023282954865201908140000014844981318277371279_);}
	.st312{fill:url(#SVGID_00000152974709364026421720000010388421306046456987_);}
	.st313{fill:url(#SVGID_00000161619718053403655830000018297877892063551407_);}
	.st314{fill:url(#SVGID_00000091006433903494493840000002695327115534346370_);}
	.st315{fill:url(#SVGID_00000016794890219697634220000010992781822376625853_);}
	.st316{fill:#5C2D91;}
	.st317{clip-path:url(#SVGID_00000031180269870688787410000006092814561923656618_);}
	.st318{clip-path:url(#SVGID_00000035500501061703975700000015808800259877522067_);}
	.st319{clip-path:url(#SVGID_00000083767752987541952370000000902964390892853904_);}
</style>
<g>
	<defs>
		<rect id="SVGID_1_" width="657.58" height="92.66"/>
	</defs>
	<clipPath id="SVGID_00000176025063131906876110000000240862314174695843_">
		<use xlink:href="#SVGID_1_"  style="overflow:visible;"/>
	</clipPath>
	
		<radialGradient id="SVGID_00000133504399574852367200000017909942465261597092_" cx="342.0868" cy="585.9512" r="734.1526" gradientTransform="matrix(1 0 0 0.9882 0 38.458)" gradientUnits="userSpaceOnUse">
		<stop  offset="7.636479e-03" style="stop-color:#2F6A9B"/>
		<stop  offset="0.0537" style="stop-color:#3D5D96"/>
		<stop  offset="0.1652" style="stop-color:#5B438B"/>
		<stop  offset="0.2615" style="stop-color:#6D3384"/>
		<stop  offset="0.3308" style="stop-color:#732D82"/>
		<stop  offset="0.4425" style="stop-color:#5B2974"/>
		<stop  offset="0.5729" style="stop-color:#452668"/>
		<stop  offset="0.657" style="stop-color:#3D2563"/>
		<stop  offset="0.7585" style="stop-color:#2E1C50"/>
		<stop  offset="0.9109" style="stop-color:#1F1032"/>
	</radialGradient>
	
		<rect x="-66.68" y="-524.61" style="clip-path:url(#SVGID_00000176025063131906876110000000240862314174695843_);fill:url(#SVGID_00000133504399574852367200000017909942465261597092_);" width="846.82" height="1815.09"/>
	
		<g id="XMLID_00000175280875311032692900000014245033002016566964_" style="opacity:0.4;clip-path:url(#SVGID_00000176025063131906876110000000240862314174695843_);">
		<defs>
			
				<rect id="XMLID_00000067959163981015537400000016226471537929700502_" x="-201.54" y="-373.06" transform="matrix(-1 -1.224647e-16 1.224647e-16 -1 663.7703 -34.8877)" class="st2" width="1066.85" height="711.23"/>
		</defs>
		<clipPath id="XMLID_00000181780651467499103620000002290949634510758332_">
			<use xlink:href="#XMLID_00000067959163981015537400000016226471537929700502_"  style="overflow:visible;"/>
		</clipPath>
		
			<g id="XMLID_00000044158132666985005090000004835367870006966683_" style="opacity:0.46;clip-path:url(#XMLID_00000181780651467499103620000002290949634510758332_);">
			<path id="XMLID_00000102510756456152458620000016982179643201828744_" class="st4" d="M365.4,33.98
				c0.21-1.44-0.79-2.77-2.23-2.97c-1.44-0.21-2.77,0.79-2.97,2.23s0.79,2.77,2.23,2.97C363.86,36.42,365.19,35.42,365.4,33.98z"/>
			<path id="XMLID_00000096756636982567483370000017499181294121229236_" class="st5" d="M334.39,24.24
				c0.05-0.34-0.19-0.66-0.53-0.7c-0.34-0.05-0.66,0.19-0.7,0.53c-0.05,0.34,0.19,0.66,0.53,0.7
				C334.02,24.81,334.34,24.58,334.39,24.24z"/>
			<path id="XMLID_00000145743699018796745790000008522847520050842793_" class="st5" d="M344.63,5.96c0.05-0.34-0.19-0.66-0.53-0.7
				c-0.34-0.05-0.66,0.19-0.7,0.53c-0.05,0.34,0.19,0.66,0.53,0.7C344.27,6.53,344.58,6.3,344.63,5.96z"/>
			<path id="XMLID_00000112607977360403137800000008327517066084044674_" class="st5" d="M320.56,48.67
				c0.05-0.34-0.19-0.66-0.53-0.7c-0.34-0.05-0.66,0.19-0.7,0.53c-0.05,0.34,0.19,0.66,0.53,0.7
				C320.2,49.25,320.51,49.01,320.56,48.67z"/>
			<path id="XMLID_00000005959538503574479650000009512441053575275684_" class="st6" d="M388,53.16c0.11-0.76-0.42-1.47-1.18-1.58
				c-0.76-0.11-1.47,0.42-1.58,1.18c-0.11,0.76,0.42,1.47,1.18,1.58C387.18,54.45,387.89,53.92,388,53.16z"/>
			<path id="XMLID_00000037674087018831617250000001104347825031459733_" class="st6" d="M389.62,8.11
				c0.11-0.76-0.42-1.47-1.18-1.58c-0.76-0.11-1.47,0.42-1.58,1.18c-0.11,0.76,0.42,1.47,1.18,1.58
				C388.8,9.4,389.51,8.87,389.62,8.11z"/>
			<path id="XMLID_00000004515486467102128620000012362567883901466553_" class="st7" d="M433.51,10.57
				c0.08-0.58-0.32-1.12-0.91-1.21c-0.58-0.08-1.12,0.32-1.21,0.91c-0.08,0.58,0.32,1.12,0.91,1.21
				C432.89,11.56,433.43,11.15,433.51,10.57z"/>
			<path id="XMLID_00000125563393556789691960000013615207840616767380_" class="st7" d="M469.9,50.01
				c0.08-0.58-0.32-1.12-0.91-1.21c-0.58-0.08-1.12,0.32-1.21,0.91c-0.08,0.58,0.32,1.12,0.91,1.21
				C469.28,51,469.82,50.59,469.9,50.01z"/>
			<path id="XMLID_00000057105831748210364970000012083619088348411535_" class="st8" d="M400.24,24.72
				c0.08-0.58-0.32-1.12-0.9-1.21c-0.58-0.08-1.12,0.32-1.21,0.9c-0.08,0.58,0.32,1.12,0.91,1.21
				C399.61,25.7,400.15,25.3,400.24,24.72z"/>
			<path id="XMLID_00000076564794504015429070000018307448437489755799_" class="st9" d="M433.37,55.08c0.15-1.04-0.57-2-1.61-2.15
				c-1.04-0.15-2,0.57-2.15,1.61c-0.15,1.04,0.57,2,1.61,2.15C432.26,56.83,433.23,56.11,433.37,55.08z"/>
			<path id="XMLID_00000026130382594186587530000004674796926807993765_" class="st9" d="M413.33,74.25
				c0.08-0.55-0.3-1.06-0.85-1.14c-0.55-0.08-1.06,0.3-1.14,0.85c-0.08,0.55,0.3,1.06,0.85,1.14
				C412.74,75.18,413.25,74.8,413.33,74.25z"/>
			<path id="XMLID_00000156570476904317680560000002743579265743095689_" class="st10" d="M364.68,65.25
				c0.08-0.55-0.3-1.06-0.85-1.14c-0.55-0.08-1.06,0.3-1.14,0.85c-0.08,0.55,0.3,1.06,0.85,1.14
				C364.09,66.19,364.6,65.8,364.68,65.25z"/>
			<path id="XMLID_00000134941242239237381390000003192443094874848689_" class="st10" d="M341.4,63.96
				c0.08-0.55-0.3-1.06-0.85-1.14c-0.55-0.08-1.06,0.3-1.14,0.85c-0.08,0.55,0.3,1.06,0.85,1.14
				C340.81,64.89,341.32,64.51,341.4,63.96z"/>
			<path id="XMLID_00000046318923246695166300000010625689496517985698_" class="st10" d="M396.86,47.94
				c0.08-0.55-0.3-1.06-0.85-1.14c-0.55-0.08-1.06,0.3-1.14,0.85c-0.08,0.55,0.3,1.06,0.85,1.14
				C396.27,48.87,396.78,48.49,396.86,47.94z"/>
			<path id="XMLID_00000122705105441019590270000004995834653516618429_" class="st11" d="M428.9,27.74c0.15-1.04-0.57-2-1.61-2.15
				c-1.04-0.15-2,0.57-2.15,1.61c-0.15,1.04,0.57,2,1.61,2.15C427.79,29.49,428.75,28.77,428.9,27.74z"/>
			<path id="XMLID_00000029757472644223789720000011077746679591765641_" class="st12" d="M462.52,25.01
				c0.05-0.36-0.2-0.69-0.55-0.74c-0.36-0.05-0.69,0.2-0.74,0.55c-0.05,0.36,0.2,0.69,0.55,0.74
				C462.14,25.61,462.47,25.37,462.52,25.01z"/>
			<path id="XMLID_00000098910476843285116900000012233658503831873414_" class="st12" d="M367.43,15.73
				c0.1-0.71-0.39-1.36-1.09-1.46c-0.71-0.1-1.36,0.39-1.46,1.09s0.39,1.36,1.09,1.46C366.67,16.92,367.32,16.43,367.43,15.73z"/>
			<path id="XMLID_00000016790946572245578370000013055263750061499030_" class="st5" d="M534.67,25.04
				c-0.34,0.04-0.58,0.35-0.54,0.69c0.04,0.34,0.35,0.58,0.69,0.54c0.34-0.04,0.58-0.35,0.54-0.69
				C535.32,25.24,535.01,25,534.67,25.04z"/>
			<path id="XMLID_00000160150804912395138450000016135139051736107682_" class="st5" d="M514.34,19.96
				c-0.34,0.04-0.58,0.35-0.54,0.69s0.35,0.58,0.69,0.54c0.34-0.04,0.58-0.35,0.54-0.69C514.99,20.16,514.68,19.92,514.34,19.96z"/>
			<path id="XMLID_00000083767236367284146050000012302673431865251227_" class="st5" d="M561.88,31.95
				c-0.34,0.04-0.58,0.35-0.54,0.69c0.04,0.34,0.35,0.58,0.69,0.54c0.34-0.04,0.58-0.35,0.54-0.69
				C562.53,32.14,562.22,31.9,561.88,31.95z"/>
			<path id="XMLID_00000150780888248748170330000008333056971059941271_" class="st7" d="M462.72,29.18c-0.58,0.07-1,0.61-0.93,1.19
				c0.07,0.58,0.61,1,1.19,0.93c0.58-0.07,1-0.61,0.93-1.19C463.83,29.52,463.3,29.11,462.72,29.18z"/>
			<path id="XMLID_00000157990639531838004900000011143239567163570575_" class="st10" d="M571.15,7.82
				c-0.55,0.07-0.94,0.57-0.87,1.12c0.07,0.55,0.57,0.94,1.12,0.87s0.94-0.57,0.88-1.12C572.2,8.15,571.7,7.75,571.15,7.82z"/>
			<path id="XMLID_00000088829013960922894670000003054943901516011193_" class="st12" d="M519.08,80.92
				c-0.37,0.05-0.63,0.38-0.58,0.75c0.05,0.37,0.38,0.63,0.75,0.58c0.37-0.05,0.63-0.38,0.58-0.75
				C519.78,81.14,519.45,80.88,519.08,80.92z"/>
			<path id="XMLID_00000013178087445338839710000005637723902409207222_" class="st12" d="M476.46-0.79
				c-0.37,0.05-0.63,0.38-0.58,0.75s0.38,0.63,0.75,0.58c0.37-0.05,0.63-0.38,0.58-0.75C477.16-0.58,476.82-0.84,476.46-0.79z"/>
			<path id="XMLID_00000134971994317117797510000000432137799407647404_" class="st12" d="M491.73-0.58
				c-0.71,0.09-1.21,0.73-1.12,1.44c0.09,0.71,0.73,1.21,1.44,1.12c0.71-0.09,1.21-0.73,1.12-1.44
				C493.08-0.17,492.44-0.67,491.73-0.58z"/>
			<path id="XMLID_00000174573394701953050900000011438557656792030869_" class="st12" d="M638.85,48.63
				c-0.37,0.05-0.63,0.38-0.58,0.75c0.05,0.37,0.38,0.63,0.75,0.58c0.37-0.05,0.63-0.38,0.58-0.75
				C639.56,48.84,639.22,48.58,638.85,48.63z"/>
			<path id="XMLID_00000180363563490321195860000009511025642031438223_" class="st7" d="M599.36,65.17
				c-0.38-0.45-1.06-0.5-1.5-0.12c-0.45,0.38-0.5,1.06-0.12,1.5c0.38,0.45,1.06,0.5,1.5,0.12
				C599.69,66.29,599.74,65.62,599.36,65.17z"/>
			<path id="XMLID_00000121268043350960932410000001271321139787683981_" class="st7" d="M653.01,63.82
				c-0.38-0.45-1.06-0.5-1.5-0.12c-0.45,0.38-0.5,1.06-0.12,1.5c0.38,0.45,1.06,0.5,1.5,0.12
				C653.34,64.94,653.39,64.27,653.01,63.82z"/>
			<path id="XMLID_00000122722315298991066670000015430730439028396216_" class="st7" d="M501.11,90.98
				c-0.38-0.45-1.06-0.5-1.5-0.12c-0.45,0.38-0.5,1.06-0.12,1.5c0.38,0.45,1.06,0.5,1.5,0.12C501.44,92.1,501.49,91.43,501.11,90.98
				z"/>
			<path id="XMLID_00000088815853499902709900000009285580703357179828_" class="st10" d="M562.46,81.17
				c-0.36-0.42-1-0.47-1.42-0.11c-0.42,0.36-0.47,1-0.11,1.42c0.36,0.42,1,0.47,1.42,0.11S562.83,81.59,562.46,81.17z"/>
			<path id="XMLID_00000134250639780083102430000008598680383606369674_" class="st11" d="M609.23,79.96
				c-0.68-0.8-1.88-0.89-2.67-0.21c-0.8,0.68-0.89,1.88-0.21,2.67c0.68,0.8,1.88,0.89,2.67,0.21
				C609.82,81.95,609.91,80.75,609.23,79.96z"/>
			<path id="XMLID_00000015347600675350187920000015096270572183318438_" class="st11" d="M568.07,59.81
				c-0.68-0.8-1.88-0.89-2.67-0.21c-0.8,0.68-0.89,1.88-0.21,2.67c0.68,0.8,1.88,0.89,2.67,0.21
				C568.66,61.8,568.75,60.61,568.07,59.81z"/>
			<path id="XMLID_00000100347467603023169820000009101631896979936904_" class="st12" d="M629.35,52.89
				c-0.23-0.27-0.65-0.3-0.92-0.07c-0.27,0.23-0.3,0.65-0.07,0.92c0.23,0.27,0.65,0.3,0.92,0.07
				C629.55,53.57,629.58,53.16,629.35,52.89z"/>
			<path id="XMLID_00000072248106482714977850000009003860047757154456_" class="st12" d="M553.91,26.99
				c-0.23-0.27-0.65-0.3-0.92-0.07s-0.3,0.65-0.07,0.92c0.23,0.27,0.65,0.3,0.92,0.07C554.11,27.67,554.14,27.26,553.91,26.99z"/>
			<path id="XMLID_00000031175468669790873090000009129448486457333439_" class="st12" d="M522.72,52.86
				c-0.24-0.28-0.66-0.31-0.95-0.07c-0.28,0.24-0.31,0.66-0.07,0.95c0.24,0.28,0.66,0.31,0.95,0.07
				C522.93,53.57,522.96,53.14,522.72,52.86z"/>
			<path id="XMLID_00000091727766819093814110000013021930144734042508_" class="st12" d="M540.45,54.97
				c-0.24-0.28-0.66-0.31-0.95-0.07c-0.28,0.24-0.31,0.66-0.07,0.95c0.24,0.28,0.66,0.31,0.95,0.07
				C540.66,55.67,540.69,55.25,540.45,54.97z"/>
			<path id="XMLID_00000161630760127769819260000010513882949765640584_" class="st12" d="M533.69,85.9
				c-0.24-0.28-0.66-0.31-0.95-0.07c-0.28,0.24-0.31,0.66-0.07,0.95c0.24,0.28,0.66,0.31,0.95,0.07
				C533.9,86.6,533.93,86.18,533.69,85.9z"/>
			<path id="XMLID_00000083073251197461023460000007155804843876821673_" class="st12" d="M655.14,23.87
				c-0.2,0.3-0.12,0.7,0.17,0.91s0.7,0.12,0.91-0.17c0.2-0.3,0.12-0.7-0.17-0.91C655.75,23.5,655.34,23.58,655.14,23.87z"/>
		</g>
		
			<g id="XMLID_00000067208359376998398850000002633391762346920088_" style="opacity:0.46;clip-path:url(#XMLID_00000181780651467499103620000002290949634510758332_);">
			<path id="XMLID_00000140724582668856641460000002378528719360373938_" class="st5" d="M37.54,31.57
				c-0.32,0.13-0.46,0.5-0.33,0.82c0.13,0.32,0.5,0.46,0.82,0.33c0.32-0.13,0.46-0.5,0.33-0.82C38.22,31.58,37.85,31.43,37.54,31.57
				z"/>
			<path id="XMLID_00000064349993230394546800000002556095551412604598_" class="st5" d="M16.59,32.26
				c-0.32,0.13-0.46,0.5-0.33,0.82c0.13,0.32,0.5,0.46,0.82,0.33c0.32-0.13,0.46-0.5,0.33-0.82C17.27,32.27,16.91,32.12,16.59,32.26
				z"/>
			<path id="XMLID_00000103982901917911494330000012613287572005827775_" class="st5" d="M65.6,30.75c-0.32,0.13-0.46,0.5-0.33,0.82
				c0.13,0.32,0.5,0.46,0.82,0.33c0.32-0.13,0.46-0.5,0.33-0.82C66.28,30.77,65.92,30.62,65.6,30.75z"/>
			<path id="XMLID_00000157278810807938738480000008842481980709078948_" class="st10" d="M67.9,5.02
				c-0.51,0.22-0.75,0.81-0.53,1.32c0.22,0.51,0.81,0.75,1.32,0.53c0.51-0.22,0.75-0.81,0.53-1.32C69,5.04,68.41,4.8,67.9,5.02z"/>
			<path id="XMLID_00000155854499846051012300000008919992434608239539_" class="st12" d="M13.16,7.7
				c-0.66,0.28-0.96,1.04-0.68,1.69c0.28,0.66,1.04,0.96,1.69,0.68c0.66-0.28,0.96-1.04,0.68-1.69C14.57,7.73,13.81,7.42,13.16,7.7z
				"/>
			<path id="XMLID_00000104682859177897095250000010284859593575959228_" class="st12" d="M37.86,89.58
				c-0.34,0.14-0.5,0.54-0.36,0.88c0.14,0.34,0.54,0.5,0.88,0.36c0.34-0.14,0.5-0.54,0.36-0.88C38.59,89.6,38.2,89.44,37.86,89.58z"
				/>
			<path id="XMLID_00000070803992059462460300000008192678206935409562_" class="st12" d="M144.2,25.7
				c-0.34,0.14-0.5,0.54-0.36,0.88c0.14,0.34,0.54,0.5,0.88,0.36c0.34-0.14,0.5-0.54,0.36-0.88
				C144.93,25.72,144.54,25.56,144.2,25.7z"/>
			<path id="XMLID_00000114757481458994346130000002921274989936632989_" class="st6" d="M89.73,91.05
				c-0.64-0.42-1.51-0.25-1.93,0.39c-0.42,0.64-0.25,1.51,0.39,1.93s1.51,0.25,1.93-0.39C90.55,92.34,90.37,91.47,89.73,91.05z"/>
			<path id="XMLID_00000171721239263592958560000011793810472321287600_" class="st7" d="M110.75,52.43
				c-0.49-0.33-1.15-0.19-1.48,0.3c-0.33,0.49-0.19,1.15,0.3,1.48c0.49,0.33,1.15,0.19,1.48-0.3
				C111.38,53.42,111.24,52.76,110.75,52.43z"/>
			<path id="XMLID_00000032635847495815998400000000544448773839606435_" class="st7" d="M161.97,36.44
				c-0.49-0.33-1.15-0.19-1.48,0.3c-0.33,0.49-0.19,1.15,0.3,1.48c0.49,0.33,1.15,0.19,1.48-0.3
				C162.6,37.42,162.46,36.76,161.97,36.44z"/>
			<path id="XMLID_00000028298776378544053170000017836112358030145948_" class="st8" d="M109.29,88.56
				c-0.49-0.33-1.15-0.19-1.48,0.3c-0.33,0.49-0.19,1.15,0.3,1.48c0.49,0.33,1.15,0.19,1.48-0.3
				C109.91,89.55,109.78,88.89,109.29,88.56z"/>
			<path id="XMLID_00000033347424885564812780000003922483744604510115_" class="st9" d="M150.91,71.62
				c-0.87-0.58-2.05-0.34-2.63,0.54c-0.58,0.87-0.34,2.05,0.53,2.63c0.87,0.58,2.05,0.34,2.63-0.54
				C152.02,73.37,151.79,72.2,150.91,71.62z"/>
			<path id="XMLID_00000103227474466715335630000005649261562404786329_" class="st10" d="M79.65,77.93
				c-0.46-0.31-1.09-0.18-1.4,0.28c-0.31,0.46-0.18,1.09,0.28,1.4c0.46,0.31,1.09,0.18,1.4-0.28
				C80.24,78.86,80.11,78.24,79.65,77.93z"/>
			<path id="XMLID_00000040540751580707102300000003286646384978931895_" class="st11" d="M124.29,63.95
				c-0.87-0.58-2.05-0.34-2.63,0.54c-0.58,0.87-0.34,2.05,0.54,2.63c0.87,0.58,2.05,0.34,2.63-0.53
				C125.4,65.71,125.17,64.53,124.29,63.95z"/>
			<path id="XMLID_00000175322742692534322410000008593381669615124892_" class="st11" d="M79.19,55.86
				c-0.87-0.58-2.05-0.34-2.63,0.53c-0.58,0.87-0.34,2.05,0.53,2.63c0.87,0.58,2.05,0.34,2.63-0.53
				C80.3,57.61,80.06,56.43,79.19,55.86z"/>
			<path id="XMLID_00000132804455756177401690000010972721493374943911_" class="st12" d="M136.22,32.4c-0.3-0.2-0.7-0.12-0.9,0.18
				c-0.2,0.3-0.12,0.7,0.18,0.9c0.3,0.2,0.7,0.12,0.9-0.18C136.61,33.01,136.52,32.6,136.22,32.4z"/>
			<path id="XMLID_00000114043295171351715780000001144946392084027803_" class="st12" d="M56.57,28.17c-0.3-0.2-0.7-0.12-0.9,0.18
				c-0.2,0.3-0.12,0.7,0.18,0.9c0.3,0.2,0.7,0.12,0.9-0.18C56.96,28.77,56.87,28.37,56.57,28.17z"/>
			<path id="XMLID_00000168838819218155574870000017779169329694995887_" class="st12" d="M33.67,61.6
				c-0.31-0.2-0.73-0.12-0.93,0.19c-0.2,0.31-0.12,0.73,0.19,0.93c0.31,0.2,0.73,0.12,0.93-0.19C34.06,62.22,33.98,61.81,33.67,61.6
				z"/>
			<path id="XMLID_00000096037528528131408300000003953185973383112600_" class="st12" d="M51.3,58.77
				c-0.31-0.2-0.73-0.12-0.93,0.19c-0.2,0.31-0.12,0.73,0.19,0.93c0.31,0.2,0.73,0.12,0.93-0.19C51.69,59.39,51.61,58.97,51.3,58.77
				z"/>
			<path id="XMLID_00000176038353594964220490000015601727187731713214_" class="st12" d="M53.28,90.37
				c-0.31-0.2-0.73-0.12-0.93,0.19c-0.2,0.31-0.12,0.73,0.19,0.93c0.31,0.2,0.73,0.12,0.93-0.19
				C53.67,90.99,53.58,90.57,53.28,90.37z"/>
			<path id="XMLID_00000078018428822730487200000011019356439439424934_" class="st7" d="M171.47,11.43
				c-0.49-0.33-1.15-0.19-1.48,0.3c-0.33,0.49-0.19,1.15,0.3,1.48c0.49,0.33,1.15,0.19,1.48-0.3
				C172.1,12.42,171.96,11.75,171.47,11.43z"/>
			<path id="XMLID_00000099624289653261763650000002472609411733790386_" class="st7" d="M273.92,89.88
				c-0.49-0.33-1.15-0.19-1.48,0.3c-0.33,0.49-0.19,1.15,0.3,1.48c0.49,0.33,1.15,0.19,1.48-0.3
				C274.55,90.87,274.41,90.21,273.92,89.88z"/>
			<path id="XMLID_00000130630694218645288040000012200195607555718574_" class="st12" d="M248.17,85.85c-0.3-0.2-0.7-0.12-0.9,0.18
				s-0.12,0.7,0.18,0.9c0.3,0.2,0.7,0.12,0.9-0.18C248.56,86.45,248.47,86.05,248.17,85.85z"/>
			<path id="XMLID_00000015332288904766678320000018237947742137282218_" class="st12" d="M168.52,81.61c-0.3-0.2-0.7-0.12-0.9,0.18
				c-0.2,0.3-0.12,0.7,0.18,0.9c0.3,0.2,0.7,0.12,0.9-0.18C168.91,82.22,168.82,81.81,168.52,81.61z"/>
			<path id="XMLID_00000059297519231846348320000013978245483416840383_" class="st4" d="M251.54,6.05
				c-0.22,0.68,0.14,1.41,0.82,1.63c0.68,0.22,1.41-0.14,1.63-0.82c0.22-0.68-0.14-1.41-0.82-1.63C252.49,5,251.76,5.37,251.54,6.05
				z"/>
			<path id="XMLID_00000130620974480398402370000014216374592438586006_" class="st5" d="M279.09,20.66
				c-0.11,0.33,0.07,0.68,0.4,0.79c0.33,0.11,0.68-0.07,0.79-0.4c0.11-0.33-0.07-0.68-0.4-0.79
				C279.55,20.16,279.2,20.34,279.09,20.66z"/>
			<path id="XMLID_00000106131613461351896520000001411614240827621311_" class="st5" d="M265.8,36.86
				c-0.11,0.33,0.07,0.68,0.4,0.79c0.33,0.11,0.68-0.07,0.79-0.4c0.11-0.33-0.07-0.68-0.4-0.79
				C266.26,36.36,265.91,36.54,265.8,36.86z"/>
			<path id="XMLID_00000134210390361134509010000014187026690539546011_" class="st6" d="M221.89,26.86
				c-0.24,0.73,0.16,1.52,0.89,1.76c0.73,0.24,1.52-0.16,1.76-0.89s-0.16-1.52-0.89-1.76C222.91,25.73,222.13,26.13,221.89,26.86z"
				/>
			<path id="XMLID_00000172411547150295016370000003347938759537005493_" class="st7" d="M252.03,87.46
				c-0.18,0.56,0.12,1.16,0.68,1.35c0.56,0.18,1.16-0.12,1.35-0.68c0.18-0.56-0.12-1.16-0.68-1.35
				C252.81,86.6,252.21,86.9,252.03,87.46z"/>
			<path id="XMLID_00000071528084950453084780000001207237597914091953_" class="st8" d="M214.35,8.65
				c-0.18,0.56,0.12,1.16,0.68,1.35c0.56,0.18,1.16-0.12,1.35-0.68s-0.12-1.16-0.68-1.35C215.13,7.78,214.53,8.09,214.35,8.65z"/>
			<path id="XMLID_00000076582851393161888530000001308641000608535979_" class="st10" d="M211.88,40.03
				c-0.17,0.53,0.11,1.1,0.64,1.27c0.53,0.17,1.1-0.11,1.27-0.64c0.17-0.53-0.11-1.1-0.64-1.27
				C212.63,39.22,212.06,39.51,211.88,40.03z"/>
			<path id="XMLID_00000163064393733714837590000013050744883330597262_" class="st11" d="M190.71,46.29
				c-0.33,0.99,0.21,2.07,1.21,2.39c0.99,0.33,2.07-0.21,2.39-1.21c0.33-0.99-0.21-2.07-1.21-2.39
				C192.11,44.75,191.04,45.29,190.71,46.29z"/>
			<path id="XMLID_00000156573809845579027740000010857894328955257762_" class="st12" d="M169.95,75.39
				c-0.11,0.34,0.07,0.71,0.41,0.82c0.34,0.11,0.71-0.07,0.82-0.42c0.11-0.34-0.07-0.71-0.41-0.82
				C170.43,74.86,170.06,75.05,169.95,75.39z"/>
			<path id="XMLID_00000021112661204247170960000003609152150241609612_" class="st12" d="M245.07,23.25
				c-0.22,0.68,0.14,1.41,0.82,1.63c0.68,0.22,1.41-0.14,1.63-0.82c0.22-0.68-0.14-1.41-0.82-1.63
				C246.02,22.2,245.29,22.57,245.07,23.25z"/>
			<path id="XMLID_00000161600439041285665390000012247968478741347467_" class="st12" d="M208.23,88.69
				c-0.12,0.35,0.08,0.73,0.43,0.85c0.35,0.12,0.73-0.08,0.85-0.43c0.12-0.35-0.08-0.73-0.43-0.85
				C208.73,88.15,208.35,88.34,208.23,88.69z"/>
			<path id="XMLID_00000145765844222642801710000010977765095218793656_" class="st12" d="M322.92,58.68
				c-0.12,0.35,0.08,0.73,0.43,0.85c0.35,0.12,0.73-0.08,0.85-0.43c0.12-0.35-0.08-0.73-0.43-0.85
				C323.41,58.14,323.03,58.33,322.92,58.68z"/>
			<path id="XMLID_00000000184713085279805640000010599827647185767096_" class="st12" d="M200.86,72.43
				c-0.12,0.35,0.08,0.73,0.43,0.85c0.35,0.12,0.73-0.08,0.85-0.43c0.12-0.35-0.08-0.73-0.43-0.85
				C201.35,71.89,200.97,72.08,200.86,72.43z"/>
			<path id="XMLID_00000150792960375923088780000005738073678912017799_" class="st12" d="M230.82,62.21
				c-0.12,0.35,0.08,0.73,0.43,0.85c0.35,0.12,0.73-0.08,0.85-0.43c0.12-0.35-0.08-0.73-0.43-0.85
				C231.32,61.66,230.94,61.86,230.82,62.21z"/>
			<path id="XMLID_00000158740518599430018430000002566261571068477067_" class="st12" d="M237.55,48.49
				c-0.22,0.68,0.14,1.41,0.82,1.63c0.68,0.22,1.41-0.14,1.63-0.82c0.22-0.68-0.14-1.41-0.82-1.63
				C238.51,47.45,237.78,47.82,237.55,48.49z"/>
		</g>
		
			<g id="XMLID_00000081625971585072044250000014511066283937892231_" style="opacity:0.46;clip-path:url(#XMLID_00000181780651467499103620000002290949634510758332_);">
			<path id="XMLID_00000106147772963896002440000015209380764171782065_" class="st7" d="M159.56,89.78
				c-0.08-0.58-0.62-0.99-1.2-0.91c-0.58,0.08-0.99,0.62-0.91,1.2c0.08,0.58,0.62,0.99,1.2,0.91
				C159.23,90.9,159.64,90.37,159.56,89.78z"/>
		</g>
	</g>
</g>
</svg>
