<?xml version="1.0" encoding="utf-8"?>
<!-- Generator: Adobe Illustrator 22.0.0, SVG Export Plug-In . SVG Version: 6.00 Build 0)  -->
<svg version="1.1" id="Layer_1" xmlns="http://www.w3.org/2000/svg" xmlns:xlink="http://www.w3.org/1999/xlink" x="0px" y="0px"
	 viewBox="0 0 52.8 230.4" style="enable-background:new 0 0 52.8 230.4;" xml:space="preserve">
<style type="text/css">
	.st0{fill:#3F017D;}
	.st1{fill:#FFFFFF;}
</style>
<path class="st0" d="M40.6,17H15.8v0C6.9,16.6-0.1,9.4-0.1,0.4v28.9v171.7V230c0-8.9,7.1-16.2,15.9-16.6v0h24.8
	c6.9,0,12.4-5.6,12.4-12.4V29.4C53,22.6,47.4,17,40.6,17z"/>
<path class="st1" d="M30.4,151.1c1.1,0.4,2,1,2.8,1.8s1.4,1.7,1.9,2.8c0.5,1.1,0.7,2.3,0.7,3.6s-0.2,2.5-0.7,3.6
	c-0.5,1.1-1.1,2-1.9,2.8c-0.8,0.8-1.7,1.4-2.8,1.8c-1.1,0.4-2.2,0.6-3.4,0.6c-1.2,0-2.3-0.2-3.4-0.6c-1.1-0.4-2-1-2.8-1.8
	s-1.4-1.7-1.9-2.8s-0.7-2.3-0.7-3.6s0.2-2.5,0.7-3.6c0.5-1.1,1.1-2,1.9-2.8c0.8-0.8,1.7-1.4,2.8-1.8c1.1-0.4,2.2-0.6,3.4-0.6
	S29.3,150.6,30.4,151.1z M24.8,153.9c-0.7,0.3-1.4,0.7-1.9,1.2s-1,1.1-1.3,1.8c-0.3,0.7-0.5,1.5-0.5,2.3s0.2,1.6,0.5,2.3
	c0.3,0.7,0.7,1.3,1.3,1.8s1.2,0.9,1.9,1.2c0.7,0.3,1.5,0.4,2.3,0.4c0.8,0,1.6-0.1,2.3-0.4c0.7-0.3,1.4-0.7,1.9-1.2
	c0.5-0.5,1-1.1,1.3-1.8c0.3-0.7,0.5-1.5,0.5-2.3s-0.2-1.6-0.5-2.3c-0.3-0.7-0.7-1.3-1.3-1.8s-1.2-0.9-1.9-1.2
	c-0.7-0.3-1.5-0.4-2.3-0.4S25.5,153.7,24.8,153.9z"/>
<path class="st1" d="M21.3,133.4v9.6h4.6v-8.5h2.7v8.5h6.8v2.9H18.6v-12.5H21.3z"/>
<path class="st1" d="M21.3,116.7v9.6h4.6v-8.5h2.7v8.5h6.8v2.9H18.6v-12.5H21.3z"/>
<path class="st1" d="M21.3,100.1v9.5h4.3v-8.4h2.7v8.4h4.5v-9.6h2.7v12.6H18.6v-12.4H21.3z"/>
<path class="st1" d="M35.4,84.7l-5.9,4.1v3.7h5.9v2.9H18.6V88c0-1,0.1-1.8,0.4-2.6s0.6-1.4,1.1-2s1-0.9,1.7-1.2
	c0.7-0.3,1.4-0.4,2.2-0.4c0.7,0,1.3,0.1,1.9,0.3s1,0.5,1.5,0.8s0.8,0.8,1.1,1.3s0.5,1,0.7,1.6l6.4-4.5V84.7z M22,85.6
	c-0.5,0.6-0.7,1.5-0.7,2.6v4.3H27v-4.3c0-1.1-0.3-1.9-0.8-2.5c-0.5-0.6-1.2-0.9-2.1-0.9C23.2,84.7,22.5,85,22,85.6z"/>
<path class="st1" d="M23.9,74.5c0.2-0.1,0.5-0.3,0.7-0.6s0.4-0.7,0.6-1.2s0.4-1.2,0.6-2c0.2-0.9,0.5-1.7,0.7-2.3
	c0.3-0.7,0.6-1.2,1-1.7c0.4-0.4,0.8-0.8,1.4-1c0.5-0.2,1.1-0.3,1.8-0.3c0.8,0,1.5,0.1,2.1,0.4c0.6,0.3,1.2,0.7,1.6,1.2
	c0.4,0.5,0.8,1.2,1,1.9c0.2,0.7,0.3,1.5,0.3,2.4c0,1.3-0.2,2.5-0.7,3.7c-0.4,1.2-1.1,2.3-2,3.3l-2.1-1.8c0.7-0.8,1.2-1.6,1.6-2.5
	c0.4-0.8,0.6-1.8,0.6-2.8c0-0.9-0.2-1.6-0.6-2.2s-0.9-0.8-1.6-0.8c-0.3,0-0.6,0.1-0.8,0.2c-0.2,0.1-0.5,0.3-0.7,0.6
	c-0.2,0.3-0.4,0.7-0.6,1.2s-0.4,1.1-0.6,1.9c-0.2,0.9-0.4,1.7-0.7,2.4s-0.6,1.3-1,1.8c-0.4,0.5-0.8,0.8-1.4,1.1
	c-0.5,0.2-1.2,0.4-2,0.4c-0.7,0-1.4-0.1-2-0.4c-0.6-0.3-1.1-0.7-1.5-1.2c-0.4-0.5-0.8-1.1-1-1.8c-0.2-0.7-0.3-1.5-0.3-2.3
	c0-1.2,0.2-2.3,0.5-3.3c0.4-1,0.9-1.9,1.6-2.8l2.2,1.6c-0.6,0.8-1,1.5-1.3,2.3c-0.3,0.8-0.4,1.5-0.4,2.3c0,0.9,0.2,1.5,0.6,2
	c0.4,0.5,0.9,0.7,1.4,0.7C23.4,74.7,23.7,74.6,23.9,74.5z"/>
</svg>
